/* XPM */
static char *result[] = {
/* columns rows colors chars-per-pixel */
"32 32 167 2 ",
"   c #231D1A",
".  c #241E1B",
"X  c #241E1C",
"o  c #251F1D",
"O  c #26201D",
"+  c #26201E",
"@  c #28221F",
"#  c #292320",
"$  c #2A2421",
"%  c #2B2421",
"&  c #2A2422",
"*  c #2D2724",
"=  c #2F2926",
"-  c #302A27",
";  c #312A27",
":  c #392825",
">  c #3B2A27",
",  c #322B28",
"<  c #3A2B28",
"1  c #3C2B28",
"2  c #3D2D29",
"3  c #3C2E2A",
"4  c #3E2E2A",
"5  c #3E2F2B",
"6  c #373627",
"7  c #3F3626",
"8  c #3B3B29",
"9  c #402D29",
"0  c #422F2B",
"q  c #41302C",
"w  c #45312E",
"e  c #4A322E",
"r  c #4E332F",
"t  c #433B29",
"y  c #443B2C",
"u  c #533530",
"i  c #543631",
"p  c #5B3833",
"a  c #603A35",
"s  c #613B36",
"d  c #633C36",
"f  c #3F4428",
"g  c #414A27",
"h  c #434D25",
"j  c #464C2D",
"k  c #514C2F",
"l  c #455425",
"z  c #495A27",
"x  c #4D5F27",
"c  c #4C562E",
"v  c #524233",
"b  c #574230",
"n  c #574533",
"m  c #5B4836",
"M  c #71413B",
"N  c #75593B",
"B  c #795D3F",
"V  c #4E6228",
"C  c #506429",
"Z  c #52662B",
"A  c #576F2B",
"S  c #586F2B",
"D  c #58702C",
"F  c #59712C",
"G  c #59732C",
"H  c #5B732D",
"J  c #5C732F",
"K  c #5C742F",
"L  c #5E7A2E",
"P  c #5D7530",
"I  c #5E7632",
"U  c #5E7732",
"Y  c #607833",
"T  c #627E31",
"R  c #637E31",
"E  c #727038",
"W  c #707738",
"Q  c #76743C",
"!  c #737A3B",
"~  c #7A5E40",
"^  c #7B5F41",
"/  c #7B7340",
"(  c #7C7F4A",
")  c #A3673F",
"_  c #8B6943",
"`  c #8E6C46",
"'  c #80684C",
"]  c #8F6E48",
"[  c #906E48",
"{  c #916F49",
"}  c #977A57",
"|  c #A76940",
" . c #A86A40",
".. c #AD6D42",
"X. c #AE6D42",
"o. c #AF6E43",
"O. c #B06E43",
"+. c #A1794C",
"@. c #A0794E",
"#. c #B37044",
"$. c #B57145",
"%. c #B67245",
"&. c #B07647",
"*. c #B37647",
"=. c #BB7547",
"-. c #B57748",
";. c #B67949",
":. c #B97C4B",
">. c #BB7C4B",
",. c #BC7D4B",
"<. c #BA7D4C",
"1. c #A57D50",
"2. c #63822F",
"3. c #668531",
"4. c #668830",
"5. c #688931",
"6. c #6D8E36",
"7. c #729934",
"8. c #79A637",
"9. c #7CA937",
"0. c #7AA33A",
"q. c #7FAC38",
"w. c #7FAD39",
"e. c #7A8242",
"r. c #82AF3B",
"t. c #84B63B",
"y. c #85B63B",
"u. c #87B93D",
"i. c #89BE3C",
"p. c #8EC63D",
"a. c #91CB3F",
"s. c #94CE3F",
"d. c #838152",
"f. c #BB814E",
"g. c #A98050",
"h. c #B18654",
"j. c #BA8C57",
"k. c #98A84A",
"l. c #9F8869",
"z. c #BE9D71",
"x. c #C28953",
"c. c #C98953",
"v. c #C88C55",
"b. c #CD8F56",
"n. c #C99057",
"m. c #CD945A",
"M. c #CB985C",
"N. c #CC995C",
"B. c #CD995D",
"V. c #CE9A5D",
"C. c #D0955A",
"Z. c #D0985C",
"A. c #D3985C",
"S. c #D49B5D",
"D. c #D29D5F",
"F. c #D49E60",
"G. c #D59F60",
"H. c #DBA463",
"J. c #DFAC6D",
"K. c #C6A373",
"L. c #E1AF71",
"P. c #E5B87B",
"I. c #9CDB43",
"U. c #B3C855",
"Y. c #C2DB5B",
"T. c #C6E05D",
"R. c #D6F264",
/* pixels */
"I.I.I.I.I.I.I.I.I.I.I.I.I.I.I.I.I.I.I.I.I.I.I.I.I.I.I.I.I.I.I.I.",
"I.I.I.I.I.I.I.I.I.I.I.0.I U Y Y Y Y Y r.I.I.I.I.I.I.I.I.I.I.I.I.",
"I.I.I.I.I.I.I.I.I.I.0./ ] [ { { { { { Q r.I.I.I.I.I.I.I.I.I.I.I.",
"I.I.I.I.I.I.I.I.I.0./ j.D.M.M.M.M.M.F.h.Q r.I.I.I.R.I.R.R.I.I.I.",
"I.I.I.R.R.I.I.I.I.K ` D.B.V.V.V.V.V.N.F.^ 6.I.I.I.I.I.I.I.I.I.I.",
"I.I.I.I.I.I.I.I.I.F _ M.V.H.H.H.H.H.M.V.^ 6.I.I.I.I.I.I.I.I.I.I.",
"I.I.I.I.I.I.I.I.I.P ` F.N.M.M.M.M.M.B.G.^ 6.I.I.I.I.I.I.I.I.I.I.",
"I.I.I.I.I.I.I.I.I.Y m ~ g.V.V.V.V.V.@.^ v 6.I.I.I.I.I.I.I.I.I.I.",
"I.I.I.I.I.I.I.I.I.Y w 4 n B ~ ~ B ~ v w q 6.I.I.I.I.I.I.I.I.I.I.",
"I.I.I.I.0.Y Y Y Y j q 3 = = ; - = ; , q 5 c Y Y Y e.r.I.I.I.I.I.",
"I.I.I.0.d.l.l.l.l.l.l.l.l.l.l.l.l.l.l.l.l.l.l.l.l.l.( r.I.I.I.I.",
"I.I.0.d.K.P.P.P.P.P.P.P.P.P.P.P.P.P.P.P.P.P.P.P.P.P.z.( r.I.I.I.",
"I.0.d.K.J.n.f.f.f.f.f.f.f.f.f.f.f.f.f.f.f.f.f.f.f.m.L.z.( r.I.I.",
"I.Y } J.n.-.O.O.O.O.O.O.O.O.O.O.O.O.O.O.O.O.O.O.O.;.m.L.z.( r.I.",
"I.Y { C.*. .........$.=.=.=.#...............$.=.=...&.m.L.z.( r.",
"I.Y { c.$.O.O.O.O.O.%.=.=.=.$.O.O.O.O.O.O.O.X.....| ) x.H.L.' 6.",
"I.Y { c.#.......$.=.=.=.=.=.#.........$.=.=.$.O.O.O. .x.H.1.! u.",
"I.Y { A.,.O.O.O.X...........o.O.O.O.O.%.=.#.........:.Z.1.! u.I.",
"I.r.Q h.A.>...$.$.O.O.O.O.O.%.=.=.=.=.=.=.$.O.O.O.<.Z.+.W u.I.I.",
"I.I.r.Q h.m.x.v.b.b.b.b.b.b.b.b.b.b.b.b.b.b.b.b.b.S.1.W y.I.I.I.",
"I.I.I.r.E N N N N N N N N N N N N N N N N N N N N N W u.I.I.I.I.",
"I.I.I.I.q.5.5.5.5.h .                     z 5.5.5.5.y.I.I.I.I.I.",
"I.I.I.I.I.I.I.I.I.D O @ X o X o @ X o @ X 4.I.I.I.I.I.I.I.I.I.I.",
"I.I.I.I.I.I.I.I.I.A @ 0 > & $ & * $ 9 2 + 4.I.I.I.I.I.I.I.I.I.I.",
"I.I.I.I.R.I.I.R.I.A @ u e 0 u u 2 0 d e + 4.I.I.I.I.I.I.I.I.I.I.",
"I.I.I.I.I.R.I.I.I.A @ u a r a M e u p < + 4.I.I.I.I.I.I.I.I.I.I.",
"I.I.I.I.I.Y.U.t.t.x # i M e u M e u e * + G t.t.t.a.I.I.I.I.I.I.",
"I.I.I.I.p.8.7.7.7.l % q s e u M e u e * + V 7.7.7.9.T.R.I.I.I.I.",
"I.I.I.p.8.7.7.7.7.L f 8 k y 1 b 7 : t 6 g 2.7.7.7.k.9.T.I.I.I.I.",
"I.I.I.t.7.7.7.k.7.7.T P R J Z F S C H J 3.7.7.7.7.7.7.i.I.I.I.I.",
"I.I.I.a.9.7.7.7.7.7.7.7.7.7.7.7.7.7.7.7.7.7.7.7.7.7.w.s.I.I.I.I.",
"I.I.I.I.a.i.i.i.i.i.9.7.7.7.7.7.7.7.7.7.w.i.i.i.i.i.s.I.I.I.I.I."
};
