/* XPM */
static char *_511cd0dd0c744bed3e794fc67f2c1dejWfipt7DI3icPsuA[] = {
/* columns rows colors chars-per-pixel */
"32 32 17 1 ",
"  c #322B28",
". c #3B322D",
"X c #40362F",
"o c #453B34",
"O c #453C34",
"+ c #71413B",
"@ c #5D4E41",
"# c #5A4E44",
"$ c #77624A",
"% c #796755",
"& c #BB7547",
"* c #A08662",
"= c #DBA463",
"- c #9CDB43",
"; c #D6F264",
": c #C7B08B",
"> c #F4D29C",
/* pixels */
"------------- && %*********%%%**",
"-------------    -%*************",
"---;--------- >> ;-%************",
"---;;------- ==>> %%************",
"---------;; >=>==> **%%%********",
"---------; =>=>==== ************",
"--------- =>==>=&=&= *%*%%******",
"-------- =>&==>>===&= *******%%*",
"-------- &&==>>>=&=&= **********",
"-----;-- =&==>>>=&==  **********",
"--------    &>>>==&   **********",
";;------  +   &       **********",
"          ++ +&&  &&  %%********",
"==>>==>=> && &&&  &&  %%*****%*%",
"+++++++++ &&+=++& &&  ******%%%%",
"&&++&&&&& +=+= +& &&& ******:%%*",
"++&&++     =+=++&&&+& **********",
"         & =+= +&=&+& %%%*******",
"%%-##%#- &+=== +&=&+& %%%*******",
"**%%***% &  &&  &&=++ %%********",
"**%%**** & +&=+ +&=++ ******%***",
"*****%%% + +&=& +&=++ ******%***",
"           ++== +&= + **********",
"===>==>==  ++&= +&= + **********",
"++++&&&&& + +&=  &+ + %*********",
"&&&&&++++ + +&&  ++ + *****%%%%*",
"++++++      +&&+ +    ****%%%%**",
"            +&++ +    **********",
"**%**%**$   +++  + + $**********",
"$$$$@@$$$    +       @$****%****",
"$$$$@$$$$$ .O  X  o @@$****%****",
"********$$$$$$$$$$$$$$**********"
};
