/* XPM */
static char *c3e602d8703c4d08d82b19da36e2cd2eJoSwiZ0ZWa2pxDYf[] = {
/* columns rows colors chars-per-pixel */
"32 32 126 2 ",
"   c #322A27",
".  c #322B28",
"X  c #342C28",
"o  c #392E29",
"O  c #3B302A",
"+  c #3C312B",
"@  c #3C332C",
"#  c #3E352F",
"$  c #41302C",
"%  c #44312D",
"&  c #533C2F",
"*  c #543D2F",
"=  c #493731",
"-  c #433A33",
";  c #543E30",
":  c #5E3A35",
">  c #613B36",
",  c #633C36",
"<  c #663F37",
"1  c #6E3F3A",
"2  c #464F2C",
"3  c #49512D",
"4  c #4B542D",
"5  c #4C572F",
"6  c #4D4236",
"7  c #594735",
"8  c #5B4836",
"9  c #5C4936",
"0  c #534639",
"q  c #55473B",
"w  c #684239",
"e  c #624C38",
"r  c #70403A",
"t  c #74433B",
"y  c #75443B",
"u  c #7E4B3C",
"i  c #607931",
"p  c #647F32",
"a  c #665542",
"s  c #685743",
"d  c #685846",
"f  c #77624A",
"g  c #79644B",
"h  c #796755",
"j  c #834E3E",
"k  c #854F3E",
"l  c #86503E",
"z  c #88523F",
"x  c #925F3D",
"c  c #9A633F",
"v  c #855643",
"b  c #8B5A45",
"n  c #8B6150",
"m  c #826D51",
"M  c #916452",
"N  c #946652",
"B  c #967D5C",
"V  c #A16442",
"C  c #A56543",
"Z  c #A86844",
"A  c #B27045",
"S  c #B57145",
"D  c #B87346",
"F  c #BB7547",
"G  c #BD7748",
"H  c #B97B4B",
"J  c #BD7849",
"K  c #BC7D4C",
"L  c #668532",
"P  c #6B8B33",
"I  c #709434",
"U  c #739935",
"Y  c #749A35",
"T  c #7CA63A",
"R  c #7DAA38",
"E  c #80AC3B",
"W  c #81AF3C",
"Q  c #90C73E",
"!  c #91CA3F",
"~  c #9B825E",
"^  c #A88051",
"/  c #B18756",
"(  c #B78555",
")  c #B38856",
"_  c #B48957",
"`  c #B48A58",
"'  c #A8BB51",
"]  c #A08662",
"[  c #BBA079",
"{  c #BCA179",
"}  c #C3814E",
"|  c #C4824E",
" . c #C68552",
".. c #C28859",
"X. c #C88B5B",
"o. c #CA8D5C",
"O. c #CB9359",
"+. c #CC9259",
"@. c #D1965A",
"#. c #D3985C",
"$. c #D09C5F",
"%. c #D49D60",
"&. c #D9A161",
"*. c #DBA463",
"=. c #DCA666",
"-. c #D6A76C",
";. c #DEAC6F",
":. c #C2A67C",
">. c #C4A77D",
",. c #C3A87F",
"<. c #DFAF72",
"1. c #E1AF71",
"2. c #E2B173",
"3. c #95D041",
"4. c #9CDB43",
"5. c #ADC055",
"6. c #D6F264",
"7. c #E2BC87",
"8. c #EBC28A",
"9. c #ECC38A",
"0. c #ECC58B",
"q. c #EEC78E",
"w. c #E7C794",
"e. c #F0CF9A",
"r. c #F3D19B",
"t. c #F4D29C",
/* pixels */
"] ] ] ] ] ] ] ] ] ] ] ] ] ] ] ] ] ] ] ] ] ] ] ] ] ] ] ] ] ] ] ] ",
"] ] ] ] ] ] ] ] ] ] ] ] ] ~ 6 0 ] ] ] ] ] ] ] ] ] ] ] ] ] ] ] ] ",
"] ] ] ] ] ] ] ] ] ] ] ] ~ q ,.{ 0 ] ] h h ] ] ] h h h h h ] ] ] ",
"] ] h ] ] ] ] ] ] ] ] ~ q ) 2.e.{ 0 ] ] ] ] ] ] h h h ] h ] ] ] ",
"] ] ] ] ] ] ] ] ] ] ~ q >.=.0.1.<.{ 0 ] ] ] ] ] ] ] ] ] ] ] ] ] ",
"] ] ] ] ] ] ] ] ] ~ q ` e.=.e.*.*.;.^ 0 ] ] ] ] ] ] ] ] ] ] ] ] ",
"] ] ] ] ] ] h h ~ q _ 0.1.=.e.&.| &.} ^ 0 ] ] ] ] ] ] ] ] ] ] ] ",
"] ] ] ] ] h h ~ q _ 8.o.*.=.r.9.#.&.@.} ^ 0 ] ] ] ] ] ] ] ] ] ] ",
"] ] ] ] h h h ~ O } o.#.=.q.t.e.&.| &.G $.O ] h h ] ] ] ] ] ] ] ",
"] ] ] ] ] ] ] ~ + @.G *.=.t.t.e.&.G &.O.7 O h h h ] h ] ] ] ] ] ",
"] ] ] ] ] ] ] ~ X 8 ; e  .t.t.e.&.@.K 7 . O ] ] ] ] ] ] ] ] ] ] ",
"] ] ] h ] ] ] ~ . X : X ; d o...9 8 & . . O ] ] ] ] ] ] ] ] ] ] ",
"6 6 - - - 6 - - . X r : X , j j > : o x . O ] ] ] ] ] ] ] ] ] ] ",
"/ / ,.:./ / :./ [ o Z V X 1 $ % r r c A . O ] ] ] ] ] ] ] ] ] ] ",
"b b M M b b M b n o F S : = ,.[ % y F A . O ] ] ] ] ] ] ] ] ] ] ",
"Z C r t Z Z Z Z V X z +.1 # t.w.X y F D x O h ] ] ] ] ] ] ] ] ] ",
"j k Z C j j * * & . = %.1 @ 2.w.o Z S l A O h ] ] ] ] ] ] ] ] ] ",
"$ $ * & $ $ . . o x + %.1 + =.w.+ @.S y A X h h ] ] h ] ] ] ] ] ",
"W W W W W W W T o S w &.( + =.w.+ &.S y A O ] h ] ] h ] ] ] ] ] ",
"4.4.4.4.6.4.4.3.o A $ e H + =.w.O | +.r u O ] ] ] ] ] ] ] ] ] ] ",
"4.4.4.4.4.6.4.3.o A X < A + *.-.o G %.r 1 X ] ] ] ] ] ] ] ] ] ] ",
"4.4.4.4.4.4.4.3.X u X y A + *.$.o G %.r 1 X ] h ] ] ] ] ] ] ] ] ",
"5 5 5 5 5 5 5 4 . $ X r u # 0.$.o G $.% 1 O ] h h ] ] ] ] ] ] ] ",
"/ / / :./ / :./ ^ . X r 1 # e.$.o G $.X 1 O ] ] ] ] ] ] ] ] ] ] ",
"b b b N } } X.} H X : % 1 # e.$.o D v X 1 O ] ] ] ] ] ] h h ] ] ",
"Z Z Z Z S j j j u X 1 X 1 # e.$.X j 1 X 1 O ] ] ] ] ] ] h ] ] ] ",
"j j j j j 1 $ $ $ . $ X 1 @ 2.7.X 1 $ X 1 O ] ] ] ] ] ] ] ] ] ] ",
"$ $ $ $ $ $ . . . . . X 1 + =.w.X 1 X : $ O ] ] ] ] ] ] ] ] ] ] ",
"W W W W 5.W W E i . . X 1 O  .w.X 1 X 1 X s h ] ] ] ] ] ] ] ] ] ",
"R R R ' R R R R I . . . $ o J -.. $ . $ X f m ] ] ] h h ] ] ] ] ",
"Y Y Y Y Y Y Y Y U i X 3 2 o G $..   X X a f g h ] ] ] ] ] ] ] ] ",
"! ! ! ! ! ! ! Q Y U p P L o F H . - s a f g B ] ] ] ] ] ] ] ] ] "
};
