/* XPM */
static char *_d967b9234394a81fdc06fdb27e0fdc4BVvsokqYLN5DfWXm[] = {
/* columns rows colors chars-per-pixel */
"32 32 162 2 ",
"   c #805C4A",
".  c #85584D",
"X  c #AD745F",
"o  c #807873",
"O  c #807974",
"+  c #AE6E61",
"@  c #CE7C78",
"#  c #D07E7A",
"$  c #6A872E",
"%  c #6D932F",
"&  c #6C972E",
"*  c #6C982E",
"=  c #6F9C2F",
"-  c #758C32",
";  c #6D973A",
":  c #709531",
">  c #739A37",
",  c #75A432",
"<  c #78A833",
"1  c #75A23E",
"2  c #70934F",
"3  c #91CB3E",
"4  c #94CF3F",
"5  c #8B9D5A",
"6  c #C68E6F",
"7  c #C1916A",
"8  c #D1837A",
"9  c #D4867D",
"0  c #99D741",
"q  c #9ED645",
"w  c #9AD842",
"e  c #9CDB43",
"r  c #9CDB44",
"t  c #99D64C",
"y  c #9EDA4A",
"u  c #A0DA47",
"i  c #A1DB49",
"p  c #A0DC4A",
"a  c #A1DC4D",
"s  c #A9D15F",
"d  c #AEDA5A",
"f  c #B1D55B",
"g  c #B0D75F",
"h  c #B3DA5F",
"j  c #B3DA60",
"k  c #D6F264",
"l  c #505DA4",
"z  c #5460A3",
"x  c #5662A7",
"c  c #606DB6",
"v  c #616FBB",
"b  c #626FBC",
"n  c #6371BF",
"m  c #5565C2",
"M  c #5767C5",
"N  c #5567D0",
"B  c #5668D0",
"V  c #6472C7",
"C  c #6573C8",
"Z  c #6675CD",
"A  c #6876CD",
"S  c #6575D0",
"D  c #6777D4",
"F  c #6978D0",
"G  c #7A85C3",
"H  c #7B86C5",
"J  c #7689D4",
"K  c #7181DA",
"L  c #7C90EB",
"P  c #7A8CF4",
"I  c #7E8FFA",
"U  c #7F93F2",
"Y  c #7E90FB",
"T  c #7E90FC",
"R  c #C69D8B",
"E  c #D6AB97",
"W  c #D2AA9C",
"Q  c #D5B198",
"!  c #D8B19F",
"~  c #E5AB88",
"^  c #E7AF8A",
"/  c #E8B08B",
"(  c #E8B18C",
")  c #EBB591",
"_  c #ECB793",
"`  c #EBB795",
"'  c #EBB895",
"]  c #ECB895",
"[  c #EEBDAE",
"{  c #F2BBA1",
"}  c #F4BFA3",
"|  c #BED1B9",
" . c #EACD97",
".. c #E6D394",
"X. c #EAD29B",
"o. c #DBC2BF",
"O. c #F7C8A6",
"+. c #F5C2AA",
"@. c #F8C9A8",
"#. c #FBCDAC",
"$. c #FCCEAC",
"%. c #ECD7A5",
"&. c #E7DAA0",
"*. c #EED9A7",
"=. c #ECDEAD",
"-. c #F7D1A8",
";. c #F5D1AE",
":. c #FDD0AF",
">. c #F9CEB1",
",. c #FAD1B4",
"<. c #F9D9B6",
"1. c #F7D6BB",
"2. c #F7D5BC",
"3. c #FED6BA",
"4. c #FFD9BE",
"5. c #E7E9BE",
"6. c #F7E3B4",
"7. c #828ED9",
"8. c #8C8EDA",
"9. c #8390DD",
"0. c #8B91DD",
"q. c #8296F3",
"w. c #8F9DF5",
"e. c #8393F9",
"r. c #8794F9",
"t. c #8495FC",
"y. c #97A2F4",
"u. c #BECBC3",
"i. c #C7C1CC",
"p. c #CAC3CD",
"a. c #DDC7C5",
"s. c #DFCFC7",
"d. c #C6C0D0",
"f. c #C9CBDD",
"g. c #E0C4C7",
"h. c #E4C8CE",
"j. c #E1D1CA",
"k. c #F5D2C7",
"l. c #FBD4C2",
"z. c #FCD7C6",
"x. c #F6DAC1",
"c. c #FCD8C5",
"v. c #FAD9CA",
"b. c #FCDAC9",
"n. c #F6DAD0",
"m. c #F9DCD0",
"M. c #EEE9C7",
"N. c #F6E1D6",
"B. c #F9ECDA",
"V. c #FFE9DD",
"C. c #F9EFDF",
"Z. c #E7F7D2",
"A. c #ECF7DD",
"S. c #C8CCE0",
"D. c #FEEBE2",
"F. c #F6EFEA",
"G. c #FEEFE8",
"H. c #FEF5EF",
"J. c #E5E8F7",
"K. c #E8EBF7",
"L. c #E1E4F9",
"P. c #E8EAF8",
/* pixels */
"e e e e e e e e e e e e e e e e e e e e e e e e e e e e e e e e ",
"e e e e e e e e e e e e e e e e e e e e e e e e e e e e e e e e ",
"e e e e e e e e e e e e e e e e e e e e e e e e e e e e e e e e ",
"e e e e e e e e e e e u X.=.=.6.6.=.=...e e e e e k e k k e e e ",
"e e e k k e e e e e u X.) ' ' ' ' ' ` ) ..e e e e e e e e e e e ",
"e e e e e e e e e e i #./ @.O.^ / @.O.( -.e e e e e e e e e e e ",
"e e e e e e e e e q 6 ) ( :.#.^ ( :.#.^ ( 7 e e e e e e e e e e ",
"e e e e e e e e u  .@ / @.:.#.^ ( :.$.O.~ @ ..e e e e e e e e e ",
"e e e e e e e i *.@.@ ( :.:.#.^ ( :.:.#.~ # :.&.e e e e e e e e ",
"e e e e e e i %.] @.@ ^ ) ) ) ^ ^ ) ) ) ~ # $.' &.k e e e e e e ",
"e e e e e e i 3.^ ) { 8 8 8 8 8 8 8 8 8 9 } ) ( <.e e e e e e e ",
"e e e e e e i 3.^ ^ ) } } } } } } } } } } ) ^ ( <.e e e e e e e ",
"e e e e e e r h >.^ ^ _ 3.:.:.:.:.:.:.3.) ^ ( ;.d e e e e e e e ",
"e e e e e e e r h >.^ ^ ] 3.3.3.3.3.3.) ^ ( ;.d e e e e e e e e ",
"e e e e e e e e r h >.^ ^ ] 4.4.4.3.) ^ ( ;.d e e e e e e e e e ",
"e e e e e e e e e r h ,.,.,.4.4.4.4.,.,.;.d e e k e e e e e e e ",
"e e e e e e e k e e r j c.F.o V.N.O H.1.d e e k k k e e e e e e ",
"e e e e e e e e e e e r g ! j.b.v.s.Q d e e e e e e e e e e e e ",
"e e e e e e e e e e e y u.8.E R R W 0.| e e e e e e e e e e e e ",
"e e e e e e e e e e p A.L.e.p.i.i.d.t.K.Z.e e e e e e e e e e e ",
"e e e e e e e e e e a G.n.S.P.P.P.J.f.m.C.e e e e e e e e e e e ",
"e e e e e e e e e p M.b.k.w.7.G H 9.y.z.v.5.e e e e e e e e e e ",
"e e e e e e e e e a D.l.[ I b A Z n r.+.z.B.e e e e e e e e e e ",
"e e e e e e e e e i b.2.s I c v v v q.f z.x.e e e e e e e e e e ",
"e e e e k e e k e r d d t Y Z N B F q.r d d e e e e e e e e e e ",
"e e e e e k e e e e e e t K z l l x J e e e e e e e e e e e e e ",
"e e e e e k k e e e e w 1 P m C V M L < e e e e e e e e e e e e ",
"e e e e e e e e e e w , ; T S v b D U * < e e e e e k k e e e e ",
"e e e e e e e e e w , * > h.o.5 2 g.a.* * < e e e k e k e e e e ",
"e e e e e e e k e 0 * * : +   * % . X * * = e e e e e e e e e e ",
"e e e e e e e e e e 3 * & - $ * & $ - * * 4 e e e e e e e e e e ",
"e e e e e e e e e e e 3 * * * * * * * * 4 e e e e e e e e e e e "
};
