/* XPM */
static char *result[] = {
/* columns rows colors chars-per-pixel */
"32 32 207 2 ",
"   c #141013",
".  c #151113",
"X  c #151114",
"o  c #161214",
"O  c #161314",
"+  c #171414",
"@  c #1B1618",
"#  c #1C1718",
"$  c #1C1719",
"%  c #231D1D",
"&  c #241F1D",
"*  c #212417",
"=  c #212418",
"-  c #28211E",
";  c #29211F",
":  c #29221F",
">  c #2A241F",
",  c #282F1A",
"<  c #2B311B",
"1  c #302A25",
"2  c #332C29",
"3  c #332D29",
"4  c #342F2A",
"5  c #343520",
"6  c #3B332F",
"7  c #3C332F",
"8  c #3C3330",
"9  c #423934",
"0  c #433A35",
"q  c #443A35",
"w  c #443B35",
"e  c #453C36",
"r  c #463C36",
"t  c #463C37",
"y  c #463D37",
"u  c #473D37",
"i  c #473E37",
"p  c #483E38",
"a  c #493F38",
"s  c #4A4039",
"d  c #4B4039",
"f  c #4C413A",
"g  c #4D423A",
"h  c #4F453C",
"j  c #50453B",
"k  c #51453B",
"l  c #50453D",
"z  c #51463D",
"x  c #564B41",
"c  c #564B42",
"v  c #574B42",
"b  c #574C42",
"n  c #584C42",
"m  c #584D43",
"M  c #594D43",
"N  c #5A4E44",
"B  c #5B4E44",
"V  c #5B4F44",
"C  c #5A4F45",
"Z  c #5B4F45",
"A  c #5B5046",
"S  c #5C5045",
"D  c #5D5146",
"F  c #5E5146",
"G  c #5F5247",
"H  c #605347",
"J  c #615348",
"K  c #615448",
"L  c #645648",
"P  c #6B5A4C",
"I  c #705F50",
"U  c #715F50",
"Y  c #6E6153",
"T  c #6F6153",
"R  c #726051",
"E  c #736252",
"W  c #746252",
"Q  c #756353",
"!  c #706354",
"~  c #716455",
"^  c #766454",
"/  c #786554",
"(  c #786555",
")  c #786655",
"_  c #796655",
"`  c #7A6655",
"'  c #7A6755",
"]  c #7A6756",
"[  c #7B6856",
"{  c #7D6A56",
"}  c #7E6A56",
"|  c #7E6A57",
" . c #7F6B57",
".. c #8A7455",
"X. c #8B7456",
"o. c #85715D",
"O. c #86725E",
"+. c #91795A",
"@. c #917A5B",
"#. c #947C5D",
"$. c #947D5D",
"%. c #957D5D",
"&. c #967E5E",
"*. c #967F5E",
"=. c #977F5E",
"-. c #987F5F",
";. c #867460",
":. c #8A7762",
">. c #5F802E",
",. c #6B9332",
"<. c #6D9533",
"1. c #729D35",
"2. c #74A035",
"3. c #88BC3C",
"4. c #88BD3C",
"5. c #91A247",
"6. c #93A448",
"7. c #9DB04D",
"8. c #998060",
"9. c #998160",
"0. c #9A8160",
"q. c #9B8261",
"w. c #9D8460",
"e. c #9E8461",
"r. c #9E8561",
"t. c #9F8561",
"y. c #9F8562",
"u. c #9F8662",
"i. c #A08662",
"p. c #A18763",
"a. c #A58C68",
"s. c #A68D69",
"d. c #A78D69",
"f. c #A78E69",
"g. c #A78F6B",
"h. c #A8906C",
"j. c #AA916C",
"k. c #AA916D",
"l. c #AA926D",
"z. c #AB926D",
"x. c #AD997A",
"c. c #B39E7E",
"v. c #B49F7E",
"b. c #94CF40",
"n. c #94D040",
"m. c #95D141",
"M. c #9BD942",
"N. c #9BDA43",
"B. c #9CDB43",
"V. c #D4F063",
"C. c #D5F164",
"Z. c #D6F264",
"A. c #B7A281",
"S. c #BBA583",
"D. c #BCA583",
"F. c #C0A984",
"G. c #C1A984",
"H. c #C1AA85",
"J. c #C2AA85",
"K. c #C4AE89",
"L. c #C6AF8A",
"P. c #C7B08B",
"I. c #C8B18C",
"U. c #C8B18D",
"Y. c #CBB48F",
"T. c #C3B391",
"R. c #C3B392",
"E. c #CCB590",
"W. c #CCB690",
"Q. c #CDBC99",
"!. c #CFBD9A",
"~. c #D0BC9C",
"^. c #D3C19C",
"/. c #D4C29D",
"(. c #D7C49D",
"). c #D8C59E",
"_. c #D9C59E",
"`. c #DAC79F",
"'. c #DAC7A0",
"]. c #DCCAA3",
"[. c #DFCCA4",
"{. c #DFCDA5",
"}. c #E0CDA5",
"|. c #E0CEA7",
" X c #E1CFA8",
".X c #E2D0A8",
"XX c #E2D0A9",
"oX c #E3D0A9",
"OX c #E3D1A9",
"+X c #E4D1A9",
"@X c #E4D2AA",
"#X c #E4D2AB",
"$X c #E4D3AC",
"%X c #E4D5B3",
"&X c #E7D7B5",
"*X c #E8D8B6",
"=X c #E8D9B8",
"-X c #EDE9E4",
";X c #F6F3ED",
":X c #F6F4EE",
">X c #F9F6F0",
",X c #FAF7F1",
"<X c #FBF8F1",
"1X c gray98",
"2X c #FDFDFC",
"3X c #FEFEFD",
"4X c white",
/* pixels */
"B.B.B.B.B.B.B.B.B.B.B.B.B.B.B.B.B.B.B.B.B.B.B.B.B.B.B.B.B.B.B.B.",
"B.B.B.B.B.B.B.B.B.B.B.B.B.B.B.B.B.B.B.B.B.B.B.B.B.B.B.B.B.B.B.B.",
"B.B.B.B.B.B.B.B.B.B.4.+ + + + + + + + + < B.B.B.B.B.B.B.B.B.B.B.",
"B.B.B.B.B.B.B.B.B.4.& ;.%X:X|.%X1X-Xw.w...+ < B.B.Z.B.Z.Z.B.B.B.",
"B.B.B.Z.Z.B.B.B.4.> g.XX@X=X3X<X$X#XoXoX.X|.T.< B.B.B.B.B.B.B.B.",
"B.B.B.B.B.B.B.4.4 ].Y.}.I.I.U.U.W.@X@X}.I.W.OXT.< B.B.B.B.B.B.B.",
"B.B.B.B.B.B.4.1 K.P.P.E.OXOXOXOX+X@X@X}.P.P.I.x., B.B.B.B.B.B.B.",
"B.B.B.B.B.4.& { p.s.P.P.I.I.I.I.I.I.I.P.P.v.g P , B.B.B.B.B.B.B.",
"B.B.B.B.4.> e.y.i.i.q.O.P.P.P.A.S S J :./.R C R., B.B.B.B.B.B.B.",
"B.B.B.B.3.% ' ' ' Q V Z M p S S Y  X XXX/.W N m 6 5 B.B.B.B.B.B.",
"B.B.B.4.> -._ _ _ _ ( | $.x 9 9 y ~ @X'.p.9.I 9 6 , B.B.B.B.B.B.",
"B.B.B.3.2 !.B B B T .X.X^.W x e L y.p.p.i.0.U 9 e h < B.B.B.B.B.",
"B.B.4.4 (.p.t.h. X.X@X'.z.).@.r G o.L.L.L.c.j +.r l , B.B.B.B.B.",
"B.B.3.3 @X&X2X>X@X*X3X,XOX{.F.#.L a.P.P.P.Y. X).r.r...< B.B.B.B.",
"B.B.3.3 @X@X$X=X3X<X$X|.I.P.D. .t.k.OXOXOX+X@X@XoX_.X., B.B.B.B.",
"B.B.3.: f.I.I.I.U.U.I.P.P.P.S. .j.&X3X3X<X}.~.;XW.`.X., B.B.B.B.",
"B.4.O 2 [.P.P.P.P.P.P.P.H.q.:..XOX@X$X=X4X,X@X|.P.J.X., B.B.B.B.",
"B.3.- e.d.H.p.p.p.s.H.p.*.n A }.I.I.I.I.U.U.I.P.P.H.u...< B.B.B.",
"B.3.; 0.' O.L.L.L.G.l._.&.c j d.P.P.H.p.=.S S M g ] Q z , B.B.B.",
"4.O %  .y.u.p.=.S m w e q s / ' ^ ! OXoX.XQ.N F / _ W l , B.B.B.",
"3.@ a _ '  .0.Q c t N N N F  .y.%.V D D K [ ( ) _ _ W N h < B.B.",
"3.@ 9 k y.0.` _ } r.$.N L 8. .0._ I 9 t N v 0 0 u B N N l , B.B.",
"3.@ 9 r H ` _ _ _ '  .t.8.Q b f _ _ / / I 9 e N N N N l X , B.B.",
"3.@ 9 r N v 0 d _ U 0 i V v 9 s _ _ U 0 y N N N c 9 9 7   , B.B.",
"n.>.X # t N N N B N N N c 7 X $ 0 d _ E N N N c 9 9 9 6 * 1.B.B.",
"B.b.>.  X $ 9 9 9 9 9 8 X .     # 7 o $ 9 9 9 9 6 X X . = 2.B.B.",
"B.m.<.>.    X X X X X .           .     X X X X . * ,.,.1.N.B.B.",
"B.B.n.<.,.,.,.,.,.,.,.,.,.,.5.,.,.,.,.,.,.,.,.,.,.,.6.7.N.B.B.B.",
"B.B.B.n.<.<.<.<.<.<.<.<.<.<.6.6.<.<.<.<.<.<.<.<.2.V.M.C.B.B.B.B.",
"B.B.B.B.M.M.M.V.M.M.M.M.M.M.M.M.M.M.M.M.M.M.M.M.N.B.B.B.B.B.B.B.",
"B.B.B.B.B.B.B.B.B.B.B.B.B.B.B.B.B.B.B.B.B.B.B.B.B.B.B.B.B.B.B.B.",
"B.B.B.B.B.B.B.B.B.B.B.B.B.B.B.B.B.B.B.B.B.B.B.B.B.B.B.B.B.B.B.B."
};
