/* XPM */
static char *_335c110ecb6473ac047bcc89b8309a2STaBNXMsrHijuhI5[] = {
/* columns rows colors chars-per-pixel */
"32 32 52 1 ",
"  c #322B28",
". c #332C28",
"X c #342F28",
"o c #3D2F2B",
"O c #39312C",
"+ c #3D3D2A",
"@ c #4B382D",
"# c #443B33",
"$ c #653C37",
"% c #3F412A",
"& c #42462B",
"* c #454B2C",
"= c #514133",
"- c #52473E",
"; c #564A3D",
": c #505033",
"> c #71413B",
", c #7E4A3D",
"< c #5E4F42",
"1 c #695843",
"2 c #6B5C4C",
"3 c #77624A",
"4 c #78644B",
"5 c #796755",
"6 c #845342",
"7 c #8B7557",
"8 c #987F5C",
"9 c #A16741",
"0 c #A06A41",
"q c #AD6B44",
"w c #BB7547",
"e c #BA7846",
"r c #C17D4C",
"t c #749A35",
"y c #759C36",
"u c #7BA638",
"i c #7CA738",
"p c #98805D",
"a c #BB8D57",
"s c #A08662",
"d c #C58656",
"f c #C7915B",
"g c #D59B5D",
"h c #DBA463",
"j c #DFAC6D",
"k c #9CDB43",
"l c #D6F264",
"z c #CFB286",
"x c #C7B08B",
"c c #E9C08C",
"v c #EFC991",
"b c #F4D29C",
/* pixels */
"kkkkkkkkkkkkk*9w@-ssssssssssssss",
"kkkkkkkkkkkkk*   -sssssssssssss5",
"kkkkkkkkkkkkl*zb;25s5555sssss555",
"kkkkkkkkkkll*ahvb;2s5555ssss5555",
"kkklkkkkkkk*zjvjhv;2555sssssssss",
"kkkkllkkkk*avjvjhhh=7sssssssssss",
"kkkkkkkkk*avjhvjrgrg=7ssssssssss",
"kkkkkkkk*avdghvbjhhrg=7sssssssss",
"kkkkkkkk*9wghvbbjrgrg=7ss5555sss",
"kkkkkklk:arghvbbjrgh= 7ss5555sss",
"kkkkklkk*   9cbbjhr@  7ssx55xsss",
"kkkkkklk* $o  9w@     7sssssssss",
"kkkkkkkk* $>o$>>>>o9@ 25ssssssss",
"kkkkkkkk* 9w,>o $>qw@ 25ssssssss",
"kkkkkkkk* 9w,ozb;$qw@ 7ssss5ssss",
"kkkkkkkk* $f6ozb;$qww@7sssssss55",
"kkkkkkkk*9@a6oav;9w,q@7sssssss55",
"kkklkkkk*9@a6oav;ar,q@255sssss55",
"kkllkkkk*9,fh=av;ar,q@255sssssss",
"kkkkkkkk*9@ 9@av;9g6>o7s5sss5sss",
"kkkkkkkk*9@$q@ah=9g6>o7sssssssss",
"kkkkkkkk*$o$q@ah=9g6>o7sssssssss",
"kkkkkkkk*$o$>ozj=9g=$o7sssssssss",
"kkkkklkk*$o$>ozj=9g=$o7sssss555s",
"kkkkkkkk*$>o$ozj=9,o$o7sssss55ss",
"kkkkkkkk* $o$ozj=$>o$o7555ssssss",
"kkkkkkkk*   $oav;$o $o755sssssss",
"kkklkkkk*   $oav;$o$o 7sssssssss",
"kkklklkku%  $o9c;$o$o18sssssssss",
"kkklllkut%    9g=    138ssssssss",
"kkkkkkkutt%+%X9g= O.1338ss555555",
"kkkkkkkkiyyyy&0e@#<444pssss5555s"
};
