/* XPM */
static char *_b519f78d08e4487bd9935e92095c550ZPJ8mVX3kGjIIGk0[] = {
/* columns rows colors chars-per-pixel */
"32 32 138 2 ",
"   c #322B28",
".  c #332C28",
"X  c #352C28",
"o  c #392F29",
"O  c #3E2F2B",
"+  c #3A302A",
"@  c #3C322B",
"#  c #383629",
"$  c #38312C",
"%  c #3F302C",
"&  c #41302C",
"*  c #45332D",
"=  c #47362F",
"-  c #4A382D",
";  c #4C392E",
":  c #463B32",
">  c #4B3F34",
",  c #613B36",
"<  c #623C36",
"1  c #653D37",
"2  c #673E38",
"3  c #6D3F3A",
"4  c #454B2C",
"5  c #4D502F",
"6  c #4B552E",
"7  c #4D582E",
"8  c #4F4032",
"9  c #4E4236",
"0  c #514132",
"q  c #584534",
"w  c #52473E",
"e  c #56493D",
"r  c #5D4E3F",
"t  c #4F5232",
"y  c #6A4038",
"u  c #6C4239",
"i  c #70403A",
"p  c #74433B",
"a  c #75443B",
"s  c #77473D",
"d  c #744E3B",
"f  c #7A483B",
"g  c #7B493C",
"h  c #7E4A3D",
"j  c #5D4E41",
"k  c #5A4E44",
"l  c #665542",
"z  c #625245",
"x  c #6A5843",
"c  c #6A5844",
"v  c #6F5D46",
"b  c #67584A",
"n  c #6B5C4C",
"m  c #6D5D4D",
"M  c #7F5140",
"N  c #725F47",
"B  c #77624A",
"V  c #79644B",
"C  c #7A664C",
"Z  c #7E684E",
"A  c #746252",
"S  c #796755",
"D  c #814C3D",
"F  c #844F3F",
"G  c #84503F",
"H  c #9A633F",
"J  c #9B643F",
"K  c #845342",
"L  c #855443",
"P  c #865744",
"I  c #885643",
"U  c #865F42",
"Y  c #84594A",
"T  c #895B4C",
"R  c #895C4D",
"E  c #8D5E4D",
"W  c #826B50",
"Q  c #897256",
"!  c #8B7557",
"~  c #8D7758",
"^  c #987F5C",
"/  c #A26741",
"(  c #A56742",
")  c #A96844",
"_  c #AD6B44",
"`  c #B27045",
"'  c #B57146",
"]  c #B97446",
"[  c #BD7748",
"{  c #B87849",
"}  c #BD7B4B",
"|  c #907E65",
" . c #C17E4C",
".. c #88BA3D",
"X. c #99805E",
"o. c #B38755",
"O. c #BE8255",
"+. c #B48955",
"@. c #BB8D57",
"#. c #BD8F59",
"$. c #B89455",
"%. c #BE915B",
"&. c #BE915C",
"*. c #A08662",
"=. c #C2804D",
"-. c #C48351",
";. c #C18356",
":. c #C68757",
">. c #C78857",
",. c #C8925B",
"<. c #CA945A",
"1. c #CF965B",
"2. c #D3985C",
"3. c #D59B5E",
"4. c #D19C5F",
"5. c #D39D60",
"6. c #D49D60",
"7. c #D9A161",
"8. c #DBA463",
"9. c #DCA666",
"0. c #DDAA6C",
"q. c #DFAC6D",
"w. c #E0AE70",
"e. c #96D241",
"r. c #9CDB43",
"t. c #D6F264",
"y. c #BAA482",
"u. c #BCA783",
"i. c #C5AA80",
"p. c #C7AC80",
"a. c #CEB083",
"s. c #CFB286",
"d. c #D0B184",
"f. c #EEC78F",
"g. c #EFC991",
"h. c #F2CF98",
"j. c #F1D09A",
"k. c #F4D29C",
/* pixels */
"r.r.r.r.r.r.r.r.r.r.r.r.r.r.r.r.r.r.r.r.r.r.r.r.r.r.r.r.r.r.r.r.",
"r.r.r.r.r.r.r.r.r.r.r.r.r.e.4 6 r.r.r.r.r.r.r.r.r.r.r.r.r.r.r.r.",
"r.r.r.r.r.r.r.r.r.r.r.r.e.t s.p.6 r.r.r.r.r.r.r.t.t.t.r.r.r.r.r.",
"r.r.r.r.r.r.r.r.r.r.r.e.5 #.w.j.p.6 r.r.r.r.r.r.r.r.r.r.r.r.r.r.",
"r.r.r.r.r.r.r.r.r.r.e.t d.9.f.q.q.p.6 r.r.r.r.r.r.r.r.r.r.r.r.r.",
"r.r.r.r.r.r.r.r.r.e.5 &.h.9.h.8.8.0.+.6 r.r.r.r.r.r.r.r.t.r.r.r.",
"r.r.r.r.r.r.r.r.e.5 %.f.q.9.h.7.=.7. .+.6 r.r.r.r.r.r.r.r.r.r.r.",
"r.r.r.r.r.t.r.e.5 %.f.>.8.9.j.f.3.7.2. .+.6 r.r.r.t.t.r.r.r.r.r.",
"r.r.r.r.r.r.r.e.+  .:.3.9.g.k.h.7.=.7.[ 4.# r.r.r.r.r.r.r.r.r.r.",
"r.r.r.r.r.r.r.e.@ 2.[ 8.9.k.k.h.7.[ 7.1.8 # r.r.r.r.r.r.r.r.r.r.",
"r.r.r.r.r.r.r.e.. 0 ; q -.k.k.h.7.2.{ 0 , # r.r.r.r.r.r.r.r.r.r.",
"r.r.r.r.r.r.r.e.  X ,   ; r O.e 0 0 - X 3 # r.r.r.r.r.r.r.r.r.r.",
"4 4 4 4 4 4 4 4   X i , X y ] H   o / H O . 4 4 4 4 4 4 4 4 4 7 ",
"@.#.s.a.@.#.a.#.i.o _ ( o _ ] `   o ] ` + @.#.s.a.@.#.s.s.a.@.$.",
"K L R T K L T L Y o ] ' u 1.h D H o ] ` X K L R E  . .;.R T K U ",
"_ ) i p _ _ _ _ ( X F 1.s 4.& a ` o ] ` o _ _ _ ) h h D _ ) i d ",
"h D _ ) h g - - -   = 6.s 5.1 a ] / ' D J - - - ; i i i h h i u ",
"O O - - O O     o H @ 6.s 4.& a [ 2.' a `         O O O O O O % ",
"n n w ..n n ! b o ' u 7.,.4.X a [ 7.' a ` . ..w w n n n w w n m ",
"*.S S S *.*.*.A o ` % q  .{   * ]  .1.i f X S S k *.*.S S S S *.",
"*.*.S S *.*.*.X.o ` X y [ 1., X D [ 6.i 3 + S S *.S *.*.*.S *.*.",
"*.*.*.*.*.*.*.X.X f X a [ 7.( X a [ 6.i 3 X *.*.*.*.*.*.*.*.*.*.",
": : : : : : : : X 3 X i G 7.<.X a [ 4.& 3 . : : : : : : : : : 9 ",
"@.@.#.a.@.#.a.@.o.O X i s =.4.X a [ 4.  = @.#.s.s.a.@.@.@.@.@.@.",
"K K L E  . .:. .{ X < & a [ 4.  * ' M X 2 K L R R T K I  .} K P ",
"_ _ _ _ ' h h h f X 3 X a ' M   X h 3 o _ _ _ _ _ _ _ ) h h i s ",
"h h h h h 3 O O O   O X i h i , X 3 O   - - - ; h h h h i i i s ",
"O O O O O O           X i i i 3 X 3 X ,         O O O O O O O = ",
"! ! ! ! ! ! ! Q l     X i i 3 O X 3 X 3 X e n ! ! ! ! ! ! ! ! ~ ",
"Z Z Z Z Z Z Z Z N       & 3 O     O   O $ j z Z Z Z Z Z Z Z Z W ",
"B B B B B B B B B l X > > O X >   X > X c B | B B B B B B B B C ",
"^ ^ ^ ^ ^ ^ u.y.| B x v v x x v x x v c B V ^ ^ ^ ^ ^ ^ ^ ^ ^ X."
};
