/* XPM */
static char *_8e28a5f6e484dd4e79592f1945b280exrNQEbZikfaLTVl6[] = {
/* columns rows colors chars-per-pixel */
"32 32 118 2 ",
"   c #342E27",
".  c #322B28",
"X  c #332C28",
"o  c #352C29",
"O  c #3A2F29",
"+  c #3D2E2B",
"@  c #3A312A",
"#  c #3C322B",
"$  c #3A312C",
"%  c #3F302C",
"&  c #3D342E",
"*  c #3C3D2A",
"=  c #3F3530",
"-  c #402F2C",
";  c #41302C",
":  c #4B382D",
">  c #4E392E",
",  c #433832",
"<  c #463B32",
"1  c #473C33",
"2  c #543F31",
"3  c #613B36",
"4  c #653C37",
"5  c #683F38",
"6  c #6D3F3A",
"7  c #4C4035",
"8  c #504032",
"9  c #544031",
"0  c #544234",
"q  c #594735",
"w  c #554933",
"e  c #564A3D",
"r  c #59513D",
"t  c #6E403A",
"y  c #70403A",
"u  c #74433B",
"i  c #75443B",
"p  c #7A493C",
"a  c #7E4A3D",
"s  c #735F48",
"d  c #77624A",
"f  c #7B664C",
"g  c #7E684E",
"h  c #796755",
"j  c #824D3D",
"k  c #844F3F",
"l  c #9A633F",
"z  c #845342",
"x  c #806A4F",
"c  c #9F6641",
"v  c #A16741",
"b  c #A66743",
"n  c #A26942",
"m  c #A46A43",
"M  c #A66D46",
"N  c #AC6A44",
"B  c #B67146",
"V  c #B97446",
"C  c #BC7748",
"Z  c #BE7A4B",
"A  c #BE7A4C",
"S  c #C07D4B",
"D  c #C17D4C",
"F  c #648032",
"G  c #678632",
"H  c #709334",
"J  c #709434",
"K  c #739935",
"L  c #749A35",
"P  c #769D36",
"I  c #88BA3D",
"U  c #89BC3E",
"Y  c #92CB3F",
"T  c #94CF3F",
"R  c #B38755",
"E  c #B48855",
"W  c #B98A56",
"Q  c #BB8D57",
"!  c #BC8F5A",
"~  c #9D8360",
"^  c #A08662",
"/  c #C2804D",
"(  c #C68F5A",
")  c #C88A5A",
"_  c #C6915B",
"`  c #CC955B",
"'  c #D3995C",
"]  c #D59B5D",
"[  c #D59C5E",
"{  c #D29E60",
"}  c #D69D60",
"|  c #DAA362",
" . c #DBA463",
".. c #DAA465",
"X. c #DCA665",
"o. c #DDA96B",
"O. c #DDAA6C",
"+. c #DFAC6D",
"@. c #E0AE6F",
"#. c #94CF40",
"$. c #9BDA42",
"%. c #9CDB43",
"&. c #B7CD58",
"*. c #D6F264",
"=. c #C5AA80",
"-. c #CEB083",
";. c #CFB286",
":. c #C7B08B",
">. c #E5C18C",
",. c #E9C18C",
"<. c #EEC78E",
"1. c #E7C794",
"2. c #EDC790",
"3. c #EFC991",
"4. c #EAC996",
"5. c #F2CF99",
"6. c #F3D19B",
"7. c #F4D29C",
/* pixels */
"^ ^ ^ ^ ^ ^ ^ ^ ^ ^ ^ ^ ^ 1 c V > I %.%.%.%.%.%.%.%.%.%.%.%.%.%.",
"h ^ ^ ^ ^ ^ ^ ^ ^ ^ ^ ^ ^ < O O . I %.%.%.%.%.%.%.%.%.%.%.%.%.%.",
"h h h ^ ^ ^ ^ ^ h h h h ^ = =.1.e &.%.*.%.%.%.%.%.%.%.%.%.%.%.%.",
"h h h h ^ ^ ^ ^ h h h h 7 R ..3.4.r U %.*.*.%.%.%.%.%.%.%.%.%.%.",
"^ ^ ^ ^ ^ ^ ^ ^ ^ h h , =.O.<.@.X.>.r U %.%.%.%.%.%.%.%.*.%.%.%.",
"^ ^ ^ ^ ^ ^ ^ ^ ^ ^ 7 E 2.+.3.+. .X.{ w U %.%.%.%.%.*.*.%.%.%.%.",
"^ ^ ^ ^ ^ ^ ^ ^ ^ 7 E <.@. .3.+./ ] / ` w U %.%.%.%.%.%.%.%.%.%.",
"^ ^ ^ ^ ^ ^ ^ ^ 7 E <.) [  .3.5.o.| | D ` w U %.%.%.%.%.%.%.%.%.",
"^ ^ ^ h h h h ^ < n Z ] | <.6.7.+./ ] D ] 8 I %.%.%.%.%.%.%.%.%.",
"^ ^ ^ h h h h ^ < W S ]  .3.7.7.+.D ] | q X &.*.%.*.%.%.%.%.%.%.",
"^ ^ ^ :.h h :.^ < @ @ # m ,.7.7.+.| D 2 X . &.%.%.%.*.%.%.%.%.%.",
"^ ^ ^ ^ ^ ^ ^ ^ < . 3 + O & M A 9 # @ . . . I %.%.*.%.%.%.%.%.%.",
"^ ^ ^ ^ ^ ^ ^ ^ = . 4 6 + 3 u i t 6 + l : . I %.%.%.%.%.%.%.%.%.",
"^ ^ ^ ^ ^ ^ ^ ^ = . c B p y ; o 4 y b V : . I %.%.%.%.%.%.%.%.%.",
"^ ^ ^ ^ h ^ ^ ^ < . v V a ; =.1.e 4 N V : . I %.%.%.%.%.%.%.%.%.",
"h h ^ ^ ^ ^ ^ ^ < . 5 ( z + ;.7.e 4 N V B : I %.%.%.%.%.%.%.%.%.",
"h h ^ ^ ^ ^ ^ ^ < l > ! z + ! 3.e c V j N : I %.%.%.%.%.%.%.%.%.",
"h h ^ ^ ^ ^ ^ h = v : Q z + Q 3.e W S a N : I %.%.%.%.%.*.%.%.%.",
"^ ^ ^ ^ ^ ^ ^ h = v p _ } 8 Q 3.e Q D a N : I %.%.%.%.%.*.*.%.%.",
"^ ^ ^ h ^ ^ ^ h < v > @ m > Q 3.e n ' z u + I %.%.%.%.%.%.%.%.%.",
"^ ^ ^ ^ ^ ^ ^ ^ < v : 3 N : Q X.8 v ] z y + I %.%.%.%.%.%.%.%.%.",
"^ ^ ^ ^ ^ ^ ^ ^ < 5 + 4 N : Q  .8 v ] z y + I %.%.%.%.%.%.%.%.%.",
"^ ^ ^ ^ ^ ^ ^ ^ < 4 + 4 u + -.+.8 v ] 0 4 + I %.%.%.%.%.%.%.%.%.",
"^ h h h ^ ^ ^ ^ < 4 + 4 y + ;.+.8 v ] 8 4 + I %.%.%.*.%.%.%.%.%.",
"^ ^ h h ^ ^ ^ ^ < 4 6 - 4 + ;.+.8 v k % 4 + I %.%.%.%.%.%.%.%.%.",
"^ ^ ^ ^ ^ ^ h h = o 4 + 4 + ;.+.8 5 y + 4 + I %.%.%.%.%.%.%.%.%.",
"^ ^ ^ ^ ^ ^ ^ h = . o . 4 + ! <.e 4 ; . 4 + I %.%.%.%.%.%.%.%.%.",
"^ ^ ^ ^ ^ ^ ^ ^ < . . . 4 + Q 3.e 4 + 3 - . I %.%.%.%.%.*.%.%.%.",
"^ ^ ^ ^ ^ ^ ^ ^ f & . . 4 + n ,.e 4 + 4 + F #.%.%.%.*.%.*.%.%.%.",
"^ ^ ^ ^ ^ ^ ^ x d & . . o . v } 8 o . o . G P #.%.%.*.*.*.%.%.%.",
"h h h h h h ^ g d s & & $ . v ] 8 . *   F K L T %.%.%.%.%.%.%.%.",
"^ h h h h ^ ^ ~ g d s s s $ v C > F J H K L Y $.%.%.%.%.%.%.%.%."
};
