/* XPM */
static char *result[] = {
/* columns rows colors chars-per-pixel */
"32 32 14 1 ",
"  c #231F20",
". c #74181A",
"X c #931D1D",
"o c #B62827",
"O c #E5B14B",
"+ c #E8F34D",
"@ c #E9F34D",
"# c #F9F999",
"$ c #9FB1C9",
"% c #D0D9E8",
"& c #D8E1F1",
"* c #DEEBFF",
"= c #F6F8F7",
"- c None",
/* pixels */
"--------------------------------",
"--------------------------------",
"--------------------------------",
"--------------------------------",
"--------------------------------",
"--------------------------------",
"----------------oX--------------",
"---------------ooo--------------",
"---------------ooo--------------",
"---------------oo%--------------",
"-------------%%%%%%-------------",
"------------&  %%  &------------",
"------------& =%%= &------------",
"------------&  %%  &------------",
"------------&%@##@%&------------",
"-----------*&%@@@@%&*-----------",
"----------*$&%.XX.%&$*----------",
"----------*$%%.XX.%%$*----------",
"----------*$%%.XX.%%$*----------",
"----------*$%%%..%%%$*----------",
"----------*$%%%%%%%%$*----------",
"----------*$%%%%%%%%$*----------",
"----------*$$%%%%%%$$*----------",
"----------*$$$%%%%$$$*----------",
"-----------*$$$$$$$$*-----------",
"------------*$$$$$$*------------",
"------------O+----+O------------",
"--------------------------------",
"--------------------------------",
"--------------------------------",
"--------------------------------",
"--------------------------------"
};
