/* XPM */
static char *result[] = {
/* columns rows colors chars-per-pixel */
"32 32 82 1 ",
"  c #587C26",
". c #514E4F",
"X c #5E5C5C",
"o c #6E7077",
"O c #811A1B",
"+ c #831A1B",
"@ c #931D1D",
"# c #AE2524",
"$ c #B62827",
"% c #B04F2C",
"& c #A07330",
"* c #A17F32",
"= c #AF7931",
"- c #B87A32",
"; c #944F54",
": c #BD595D",
"> c #78882E",
", c #68922C",
"< c #6B972E",
"1 c #78972E",
"2 c #7A8A39",
"3 c #7AAB34",
"4 c #7EB136",
"5 c #769555",
"6 c #77946C",
"7 c #A98234",
"8 c #96A236",
"9 c #92A13C",
"0 c #99A638",
"q c #A3A93A",
"w c #89C13B",
"e c #8DC63C",
"r c #9DA45F",
"t c #A8BE4E",
"y c #8B8E64",
"u c #9FB477",
"i c #B0B36A",
"p c #9CDB43",
"a c #BCC07A",
"s c #AADB71",
"d c #ACDD73",
"f c #AEE077",
"g c #ECF45D",
"h c #D6F264",
"j c #F0F56E",
"k c #A27881",
"l c #7D8088",
"z c #A7848D",
"x c #96A78D",
"c c #9CB492",
"v c #BBA88C",
"b c #BEB299",
"n c #9FA4AF",
"m c #A7ABB3",
"M c #BBAEBA",
"N c #AABFB5",
"B c #C48B93",
"V c #CAB2BD",
"C c #AAC898",
"Z c #BADE99",
"A c #B9DA9F",
"S c #BDE3A0",
"D c #D5D08E",
"F c #DCE69A",
"G c #E7EBBB",
"H c #9FB1C9",
"J c #AEB4C0",
"K c #A9B9CF",
"L c #B4B9C0",
"P c #BDD7C6",
"I c #B4C2D6",
"U c #B0C1D8",
"Y c #B7C5D8",
"T c #B9C6DA",
"R c #BECEE4",
"E c #C4D9C3",
"W c #C2CDDF",
"Q c #CCE2CE",
"! c #C9D5E8",
"~ c #D0D9E8",
"^ c #D1DAE9",
"/ c #D4DDEC",
/* pixels */
"pppppppppppppppppppppppppppppppp",
"pppppppppppppppppppppppppppppppp",
"pppppppppppppppppppppppppppppppp",
"ppppppppppppppphhpppppppphphhppp",
"ppphhppppppppppphhpppppppppppppp",
"pppppppppppppppppppppppppppppppp",
"ppppppppppppppppq&0ppppppppppppp",
"pppppppppppppppq%#*ppppppppppppp",
"ppppppppppppppp7$$7ppppppppppppp",
"ppppppppppppppp7$:ipppppphpppppp",
"pppppppppppppsAbBVEspppppppppppp",
"ppppppphphppdxon~noxdppppppppppp",
"pppppppphpppZlXL~LXlZppppppppppp",
"ppppppppppppZl.m~m.lZppppppppppp",
"ppppppppppppZJyaGayJZppppppppppp",
"pppppppppppfQ/FgjgF/Qfpphppppppp",
"ppppppphppfP!/v=-=v/!Pfhhhpppppp",
"ppppppppppSRT^k+@+k^TRSppppppppp",
"ppppppppppSRY~k+@+k~YRSppppppppp",
"ppppppppppSRY~M;O;M~YRSppppppppp",
"ppppppppppSRY~~MzM~~YRSppppppppp",
"pppppppppwCRY~~~~~~~YRCwpppppppp",
"ppppppppw,cRKW~~~~~WKRc,wppppppp",
"pppppppw, cRHKW~~~WKHRc ,wpppppp",
"pppphppt  5NUHKIIIKHUN5  3pppppp",
"ppppphp3   5NUHHHHHUN5   3pppppp",
"ppppphhe<   rDu666uDr   <epppppp",
"ppppppppe<  >89   18>  <ephhpppp",
"pppppppppe<   22      <ephphpppp",
"ppppppphppe<         <eppppppppp",
"pppppppppppe444444444epppppppppp",
"pppppppppppppppppppppppppppppppp"
};
