/* XPM */
static char *_2d6ee044e00482388efd8ce2e77653fRJSmlkoSJ49WDTxo[] = {
/* columns rows colors chars-per-pixel */
"32 32 133 2 ",
"   c #312A27",
".  c #322B28",
"X  c #332C28",
"o  c #342C28",
"O  c #382E29",
"+  c #363329",
"@  c #39302A",
"#  c #3C322B",
"$  c #383629",
"%  c #3B322D",
"&  c #3C332C",
"*  c #3E352F",
"=  c #42312C",
"-  c #44312D",
";  c #48332E",
":  c #533C2F",
">  c #543D2F",
",  c #433A33",
"<  c #463B32",
"1  c #463B34",
"2  c #4A3E35",
"3  c #573E30",
"4  c #5E3A35",
"5  c #613B36",
"6  c #643D36",
"7  c #6E3F3A",
"8  c #4D4236",
"9  c #4B4038",
"0  c #504437",
"q  c #5A4031",
"w  c #5A4736",
"e  c #5B4836",
"r  c #5F4A37",
"t  c #52453B",
"y  c #544538",
"u  c #535A30",
"i  c #634E39",
"p  c #70403A",
"a  c #75443B",
"s  c #5D4E41",
"d  c #5A4E44",
"f  c #5F5042",
"g  c #665541",
"h  c #6A5946",
"j  c #67574A",
"k  c #6B5B49",
"l  c #6B5C4A",
"z  c #77624A",
"x  c #79644B",
"c  c #7A664C",
"v  c #746252",
"b  c #756452",
"n  c #796755",
"m  c #7F6A50",
"M  c #824D3D",
"N  c #844E3E",
"B  c #925F3D",
"V  c #95603E",
"C  c #99623F",
"Z  c #885844",
"A  c #8E5C45",
"S  c #905E46",
"D  c #806B4F",
"F  c #9A6440",
"G  c #826D51",
"H  c #846F53",
"J  c #937B5A",
"K  c #967D5C",
"L  c #A56543",
"P  c #A96844",
"I  c #B27045",
"U  c #B67146",
"Y  c #B87346",
"T  c #BB7547",
"R  c #BB7648",
"E  c #BC7748",
"W  c #B97B4B",
"Q  c #7CA63A",
"!  c #7FA83B",
"~  c #7FA93C",
"^  c #81AF3C",
"/  c #9B825E",
"(  c #A88051",
")  c #AF8352",
"_  c #B18654",
"`  c #B78555",
"'  c #B38856",
"]  c #B48957",
"[  c #BF8957",
"{  c #BF8A58",
"}  c #9D8360",
"|  c #A08662",
" . c #C3804E",
".. c #C4824F",
"X. c #C48350",
"o. c #C08B59",
"O. c #C28C59",
"+. c #C98D5C",
"@. c #C89158",
"#. c #CE935A",
"$. c #D1975B",
"%. c #D3985C",
"&. c #D09C5F",
"*. c #D69F60",
"=. c #D7A061",
"-. c #DAA362",
";. c #DBA463",
":. c #DCA665",
">. c #D6A76C",
",. c #DAA86D",
"<. c #DDAB6E",
"1. c #C4A77D",
"2. c #C6AA7F",
"3. c #E0AE6F",
"4. c #E0AE70",
"5. c #E2B173",
"6. c #95D041",
"7. c #9AD842",
"8. c #9CDB43",
"9. c #CCE560",
"0. c #D3EF62",
"q. c #D6F264",
"w. c #C7B08B",
"e. c #DAB180",
"r. c #E5BE88",
"t. c #EAC189",
"y. c #ECC58B",
"u. c #EDC68D",
"i. c #EAC895",
"p. c #EECB96",
"a. c #F2CF98",
"s. c #F3D19B",
"d. c #F4D29C",
/* pixels */
"| | n n n | | | | | | | | 8 B I : ^ 8.8.8.8.8.8.8.8.8.8.8.8.8.8.",
"| | | | | | | | | | | | | , % * o ^ q.8.8.8.8.8.8.8.8.8.8.8.8.8.",
"| | | | | | | | | | | | b u 1.s.l ~ 7.8.8.8.8.8.8.8.8.8.q.8.8.8.",
"| | | | | | | | | | | / 9 ' :.y.a.k ~ 7.8.8.8.8.8.8.8.q.q.8.8.8.",
"| | | | | | | | n n b y 2.4.u.4.;.y.h ! 7.q.q.8.8.8.8.8.8.8.8.8.",
"| | | | | | | | | / y ] y.4.u.4.-.-.-.i ! 0.q.8.8.8.8.8.8.8.8.8.",
"| | | | | | n n / 2 ] t.3.;.u.5.X.%...$.i ! 7.8.8.8.8.8.8.8.8.8.",
"| n n | | | | | 8 ) t.+.%.:.u.d.4.-.-. .%.r ^ 8.8.8.8.8.8.8.8.8.",
"| | | | | | | | 8 F T %.;.u.d.d.4. .%...@.w ^ 8.8.8.8.8.8.8.8.8.",
"| | | | | | | | 8 ( W @.*.u.d.d.4...$.&.r . ^ 8.8.8.q.8.8.8.8.8.",
"| | | | | | | | 8 . o . B e.p.i.>.&.W : 5 = ^ 8.8.8.8.8.8.8.8.8.",
"| | | | | | | | 8 . 5 - . o C q o . O O 5 = Q 6.6.6.6.6.6.6.9.9.",
"| | | | | | | | , . 6 a = 6 P T > . C T > @ # * * & # * * * & # ",
"n | n | | | | | , . C T 3 F Y U q o C T > ( *.r.i.<.-.t.p.i.,.*.",
"n n n n | | | | 8 . V R N o.Z p P > C T > 6 a a a L U U N a p p ",
"| n n w.| | | | 8 O 5 { Z o.r 5 P q C U : B I I I M p p L U M p ",
"| | | | | | | | 8 C > _ Z o.Z p P E T M ; o . . . 4 7 7 7 7 7 7 ",
"| | | | | | | n , C 3 _ S O.r 5 P %. .M P > + X $ $ X X $ $ X o ",
"| | | | | | | n , C M ` *.-.e 4 L $...N L : j d 8.d n d d 8.n n ",
"| | | | | | | | , C > o C E 3 . V T %.Z p = H n n | | | n n | | ",
"| | | n | | | | 8 V : 5 P %.A = 5 P %.Z p = H | | | | | n n | | ",
"| | | n | | | | 8 5 = 5 L $...3 5 P %.Z 7 = m / v v v / / / / / ",
"| | | | | | | | 8 5 = 5 p [ -.r 5 P %.r . @ # * * * & # # # # # ",
"| | | | | | | | 8 5 - 4 p P %.r 4 L #.w o ) *.r.i.i.,.*.=.-.*.*.",
"| | | | | | | | 8 4 p = 5 P #.w . V M = 6 a a a a a a a L U M p ",
"| n n n n | | | 8 . 4 = 5 L M = . 5 7 = B I I I U U U U M p p p ",
"| | n n n n | | 8 . . . 5 p p = . 5 = o . . . . 4 7 7 7 7 7 7 7 ",
"| | | | | | | | 0 X . . 5 p p = . 5 = 5 = o @ @ @ @ @ o o o @ @ ",
"| | | | | | | } D , . . 4 p 7 = . 4 = 4 = g J } } } b } } b } } ",
"| | | | n | | D z < . X X 4 = o . . .   o g z z z z s s z z z z ",
"| | | | n | | G z z * , 1 % o 8 * o * * t z x x x x x f x x x x ",
"| | | | | | | | G c c c c c c c c c c c c c K | | | | | | | | | "
};
