/* XPM */
static char *d3363b8e03ea47f690997515fc57fd96WgVJe4ZAM9ju7doK[] = {
/* columns rows colors chars-per-pixel */
"32 32 146 2 ",
"   c #051B3F",
".  c #0A193D",
"X  c #0C193D",
"o  c #1C1A30",
"O  c #1E1C32",
"+  c #1F1E34",
"@  c #1B1A3B",
"#  c #1C1A3B",
"$  c #201F36",
"%  c #0B223E",
"&  c #0D253F",
"*  c #22233B",
"=  c #2A283C",
"-  c #253B3E",
";  c #203D3F",
":  c #671D2F",
">  c #6E1D2E",
",  c #7E1E2C",
"<  c #6A2030",
"1  c #702435",
"2  c #28483F",
"3  c #031B41",
"4  c #0C1F45",
"5  c #0D2146",
"6  c #0B2846",
"7  c #032049",
"8  c #112741",
"9  c #1F3D42",
"0  c #1E3053",
"q  c #1F3256",
"w  c #292A43",
"e  c #2F3048",
"r  c #323349",
"t  c #37374D",
"y  c #253A54",
"u  c #283C56",
"i  c #23365A",
"p  c #26395C",
"a  c #383950",
"s  c #3D3D50",
"d  c #3F3F55",
"f  c #033363",
"g  c #073360",
"h  c #053460",
"j  c #033768",
"k  c #03386A",
"l  c #264246",
"z  c #364D47",
"x  c #174371",
"c  c #2F4160",
"v  c #324362",
"b  c #434357",
"n  c #49495C",
"m  c #545D79",
"M  c #505C7C",
"N  c #58617E",
"B  c #851E2B",
"V  c #801E2C",
"C  c #87202C",
"Z  c #872532",
"A  c #9F2132",
"S  c #A02B3B",
"D  c #C3242F",
"F  c #C42F3A",
"G  c #813545",
"H  c #873544",
"J  c #893544",
"K  c #893C4B",
"L  c #8A3D4D",
"P  c #C84F59",
"I  c #C9515B",
"U  c #77AD42",
"Y  c #79AE43",
"T  c #7FB641",
"R  c #81B942",
"E  c #A3BE5B",
"W  c #92CF42",
"Q  c #94D142",
"!  c #9AD942",
"~  c #9CDB43",
"^  c #C9E461",
"/  c #D6F264",
"(  c #5B6582",
")  c #5F6884",
"_  c #616C8A",
"`  c #6F7A97",
"'  c #717F9C",
"]  c #77819B",
"[  c #73829C",
"{  c #77829F",
"}  c #7B809B",
"|  c #78829C",
" . c #7986A2",
".. c #7D88A3",
"X. c #7A88A4",
"o. c #7E8BA6",
"O. c #888099",
"+. c #8F8198",
"@. c #908197",
"#. c #918299",
"$. c #91879F",
"%. c #828CA5",
"&. c #9189A0",
"*. c #8993AA",
"=. c #8894AF",
"-. c #8B97B2",
";. c #8C99B3",
":. c #8F9AB4",
">. c #9397B1",
",. c #9399B2",
"<. c #939EB8",
"1. c #94A0BA",
"2. c #97A3BC",
"3. c #98A4BC",
"4. c #B2B2BF",
"5. c #D6B4BC",
"6. c #A0ABC2",
"7. c #A1ACC2",
"8. c #A7B1C6",
"9. c #ACB6CA",
"0. c #B0B8C6",
"q. c #D8BEC6",
"w. c #BFC6D2",
"e. c #D8C0C8",
"r. c #C2C9D6",
"t. c #C9CFDA",
"y. c #CAD0DA",
"u. c #CBD2DD",
"i. c #CFD4DE",
"p. c #D3D7DF",
"a. c #DBD6DD",
"s. c #DBD8DF",
"d. c #CFD5E0",
"f. c #D0D6E0",
"g. c #D6DCE4",
"h. c #D8DDE6",
"j. c #DCDFE6",
"k. c #DDE2E9",
"l. c #EEEFF1",
"z. c #EEF0F2",
"x. c #F3F6F7",
"c. c #F4F6F8",
"v. c #F6F9FA",
"b. c #F8FAFB",
"n. c #FAFCFC",
"m. c #FCFEFE",
/* pixels */
"~ ~ ~ ~ ~ ~ ~ ~ ~ ~ ~ ~ ~ ~ ~ ~ ~ ~ ~ ~ ~ ~ ~ ~ ~ ~ ~ ~ ~ ~ ~ ~ ",
"~ ~ ~ ~ ~ 2 ; ; Q ~ ~ ~ ~ ~ ~ ~ ~ ~ ~ ~ ~ ~ ~ ~ ~ ~ ~ ~ ~ ~ ~ ~ ",
"~ ~ ~ ~ 2 < > . W ~ ~ ~ ~ ~ ~ ~ ~ ~ ~ ~ ~ ~ ~ ~ ~ ~ ~ ~ ~ ~ ~ ~ ",
"~ ~ ~ ~ & , B X W ~ ~ ~ ~ ~ ~ / / ~ ~ ~ ~ ~ ~ ~ ~ / ~ / / ~ ~ ~ ",
"~ ~ ~ z < B @.4 W ~ ~ ~ ~ ~ ~ ~ / / ~ ~ ~ ~ ~ ~ ~ 2 ; Q ~ ~ ~ ~ ",
"~ ~ ~ & O.Z >.5 W ~ ~ ~ ~ ~ ~ ~ ~ ~ ~ ~ ~ ~ ~ ~ ~ & : - Q ~ ~ ~ ",
"~ ~ ~ & -.&.<.5 W ~ ~ ~ ~ ~ ~ ~ ~ ~ ~ ~ ~ ~ ~ ~ 2 < +. .l Q ~ ~ ",
"~ ~ ~ & -.L ,.5 W ~ ~ ~ ~ ~ ~ ~ ~ ~ ~ ~ ~ ~ ~ ~ & O.<.L X W ~ ~ ",
"~ ~ 2 [ <.&.<.5 W ~ ~ ~ ~ ~ ~ ~ ~ ~ ~ ~ ~ ~ ~ ~ & -.L #.1 - Q ~ ",
"~ ~ & -.1.1.1.5 W ~ ~ ~ ~ ~ ~ ~ ~ ~ ~ ~ ~ ~ ~ ~ & -.&.K C X W ~ ",
"~ ~ & G ,.1.1.5 W ~ ~ ~ ~ ~ ~ ~ / ~ ~ ~ ~ ~ ~ ~ & -.1.Z B X W ~ ",
"~ ~ & , >.1.1.5 W / ~ ~ ~ ~ ~ ~ ~ / ~ ~ ~ ~ ~ ~ & -.1.&.$.4 W ~ ",
"~ ~ & O.K ,.1.5 ^ ~ ~ ~ ~ ~ ~ ~ / ~ ~ ~ ~ ~ ~ ~ & -.1.1.1.5 W ~ ",
"~ 2 < H #.<.1.X.l ; Q ~ ~ ~ ~ ~ ~ ~ ~ ~ ~ ~ 2 ; < >.1.u.d.o.l Q ",
"~ & @ V J ,.1.1.X. .l ; ; ; ; ; ; ; ; ; ; ; [  .$.<.1.h.k.3.5 W ",
"~ R T * # q q ;.1.1.X.0.S A A A A A A 4.S } <.u.d.d.2.6.7.1.5 W ",
"~ ~ 2   '  . .<.1.1.u.k.e.q.F D D 5.q.j.e.i.2.6.h.k.f.2.1.1.5 W ",
"~ 2 [  .<.1.1.1.1.u.k.k.I s.F 5.q.P s.k.k.k.f.2.6.7.7.1.1.1.5 W ",
"~ & -.1.1.1.1.a r s p.k.e.j.F a.k.e.j.k.k.k.n r r ;.1.1.1.1.5 W ",
"~ & -.1.1.1.1.* o o s | g.k.e.j.k.k.k.k.%.b O o o 0 ;.1.1.p Y ! ",
"~ R y ;.1.1.1.* o o o w ] g.c.v.v.v.k.%.e o o o o M i q q Y ! ~ ",
"~ ~ R y q q ;.( + o o o _ z.n.m.m.m.v.` $ o o o m =.5 U T ! ~ ~ ",
"~ ~ ~ R T % -.-.( N N N w.b.m.m.m.m.m.y.) N N N =.<.5 W ~ ~ ~ ~ ",
"~ ~ ~ ~ ~ R y ;.-.-.-.r.x.n.m.m.m.m.m.v.t.:.-.-.<.p Y ! ~ ~ ~ ~ ",
"~ ~ ~ ~ / ~ R u q q ;.h.n.m.9.v.m.m.m.m.k.3.p q q Y ! ~ ~ ~ ~ ~ ",
"~ ~ ~ ~ ~ / ~ R T % -...c.m.d z.m.*.c.m.8.1.5 U T ! ~ ~ ~ ~ ~ ~ ",
"~ ~ ~ ~ ~ / / ~ 2 h q w z.m.= l.m.t z.m.{ i g 9 Q ~ ~ ~ ~ ~ ~ ~ ",
"~ ~ ~ ~ ~ ~ ~ ~ & j f g c v . c v . c v x h k 3 W ~ / / ~ ~ ~ ~ ",
"~ ~ ~ ~ ~ ~ ~ 2 h k k k f f 3 E T % f f k k k f 9 ^ ~ / ~ ~ ~ ~ ",
"~ ~ ~ ~ ~ ~ ~ 8 j k k k k 7 U ! ~ R 6 j k k k k 3 W ~ ~ ~ ~ ~ ~ ",
"~ ~ ~ ~ ~ ~ 2 h k k k k k 3 W ~ ~ ~ & j k k k k f 9 Q ~ ~ ~ ~ ~ ",
"~ ~ ~ ~ ~ ~ & j k k k k 7 U ! ~ ~ ~ R 6 j k k k k 3 W ~ ~ ~ ~ ~ "
};
