/* XPM */
static char *result[] = {
/* columns rows colors chars-per-pixel */
"32 32 13 1 ",
"  c #221C1A",
". c #251E1B",
"X c #261F1C",
"o c #2D2724",
"O c #2E2724",
"+ c #322B28",
"@ c #71413B",
"# c #A3673F",
"$ c #BB7547",
"% c #BF8F57",
"& c #DBA463",
"* c #F4D29C",
"= c None",
/* pixels */
"================================",
"===========+o++++++=============",
"==========+&&&&&&&&+============",
"=========+&&%%%%%%&&+===========",
"=========X&%&&&&&&%&+===========",
"=========X&%&&&&&&%&+===========",
"=========+&&%%%%%%&&+===========",
"=========++o&&&&&&+++===========",
"=========+@ooo+oo++@+===========",
"====++++++++++++++++++++++======",
"===+**********************+=====",
"==+*&&&&&&&&&&&&&&&&&&&&&&*+====",
"=+*&&####################&&*+===",
"=+&&#$$$$$$$$$$$$$$$$$$$$#&&*+==",
"=+&$######$$$$########$$$##&&*+=",
"=+&$$$$$$$$$$$$$$$$$$$#####&&&+=",
"=+&$####$$$$$$#####$$$$$$$#&&+==",
"=+&&$$$$######$$$$$$$#####&&+===",
"==+&&##$$$$$$$$$$$$$$$$$$&&X====",
"===+&&&&&&&&&&&&&&&&&&&&&&+=====",
"====XXXXXXXXXXXXXXXXXXXXXX======",
"=========X           ===========",
"========= oo o oo oo ===========",
"========= o@oooooo@o ===========",
"========= o@o@@@o@@o ===========",
"========= o@@o@@o@oo ===========",
"========= +@@o@@o@oo ===========",
"========= ++@o@@o@oo ===========",
"==========+OO+X.XXO+============",
"================================",
"================================",
"================================"
};
