/* XPM */
static char *_2443fb693624ef997019b38a611cfa6BxHukyJZAOnTcmAI[] = {
/* columns rows colors chars-per-pixel */
"32 32 141 2 ",
"   c #322B28",
".  c #332C28",
"X  c #352C28",
"o  c #392F29",
"O  c #3E2F2B",
"+  c #373328",
"@  c #3A302A",
"#  c #3C322B",
"$  c #383629",
"%  c #39302D",
"&  c #3F302C",
"*  c #3E352F",
"=  c #3F3530",
"-  c #41302C",
";  c #45332D",
":  c #47362F",
">  c #453E2D",
",  c #4A382D",
"<  c #4C392E",
"1  c #433832",
"2  c #463B32",
"3  c #483D35",
"4  c #613B36",
"5  c #623C36",
"6  c #653D37",
"7  c #673E38",
"8  c #6D3F3A",
"9  c #454B2C",
"0  c #49522D",
"q  c #4A542D",
"w  c #4D582E",
"e  c #4F4032",
"r  c #4C4035",
"t  c #4F4E31",
"y  c #514132",
"u  c #584534",
"i  c #56493D",
"p  c #5D4E3F",
"a  c #505033",
"s  c #6A4038",
"d  c #6C4239",
"f  c #70403A",
"g  c #74433B",
"h  c #75443B",
"j  c #71443D",
"k  c #77473D",
"l  c #744E3B",
"z  c #7A483B",
"x  c #7B493C",
"c  c #7E4A3D",
"v  c #7F5140",
"b  c #746252",
"n  c #756453",
"m  c #796755",
"M  c #814C3D",
"N  c #844F3F",
"B  c #84503F",
"V  c #9A633F",
"C  c #9B643F",
"Z  c #845342",
"A  c #835443",
"S  c #855443",
"D  c #885643",
"F  c #865F42",
"G  c #84594A",
"H  c #895B4C",
"J  c #895C4D",
"K  c #8D5E4D",
"L  c #A26741",
"P  c #A56742",
"I  c #A96844",
"U  c #AD6B44",
"Y  c #B27045",
"T  c #B57146",
"R  c #B97446",
"E  c #BD7748",
"W  c #B87849",
"Q  c #BD7B4B",
"!  c #C17E4C",
"~  c #648032",
"^  c #678632",
"/  c #688633",
"(  c #6A8934",
")  c #6D8F34",
"_  c #739935",
"`  c #749A35",
"'  c #769D36",
"]  c #77A037",
"[  c #7BA638",
"{  c #7FAB39",
"}  c #82B13C",
"|  c #86B63D",
" . c #88BA3D",
".. c #8ABE3E",
"X. c #92CB3F",
"o. c #94CF3F",
"O. c #818B43",
"+. c #9A815F",
"@. c #B38755",
"#. c #BE8255",
"$. c #B48855",
"%. c #BB8D57",
"&. c #BD8F59",
"*. c #B89455",
"=. c #BE915B",
"-. c #BE915C",
";. c #94A248",
":. c #A08662",
">. c #C2804D",
",. c #C48351",
"<. c #C18356",
"1. c #C68757",
"2. c #C78857",
"3. c #C8925B",
"4. c #CA945A",
"5. c #CF965B",
"6. c #D3985C",
"7. c #D59B5E",
"8. c #D19C5F",
"9. c #D39D60",
"0. c #D49D60",
"q. c #D9A161",
"w. c #DBA463",
"e. c #DCA666",
"r. c #DDAA6C",
"t. c #DFAC6D",
"y. c #E0AE70",
"u. c #95D041",
"i. c #9CDB43",
"p. c #CCE560",
"a. c #D6F264",
"s. c #C7AB80",
"d. c #CEB083",
"f. c #CFB286",
"g. c #C7B08B",
"h. c #D0B184",
"j. c #EEC78F",
"k. c #EFC991",
"l. c #F2CF98",
"z. c #F1D09A",
"x. c #F4D29C",
/* pixels */
":.:.:.:.:.:.:.g.g.:.:.:.:.:.:.:.:.:.:.:.:.:.:.:.:.:.:.:.:.:.:.:.",
":.:.:.:.:.:.:.:.:.:.:.:.:.+.2 r :.:.:.:.:.:.:.:.:.:.:.:.:.:.:.:.",
":.:.m :.:.:.:.:.:.:.:.:.+.r f.s.r :.:.:.:.:.:.:.:.m m :.:.:.:.:.",
":.:.:.:.:.:.:.:.:.:.:.+.2 &.y.z.s.r m :.:.:.:.:.m m m :.:.:.:.:.",
":.:.:.m :.:.:.:.:.:.+.3 h.e.j.t.t.s.1 :.:.:.:.:.m m :.:.:.:.:.:.",
":.:.:.:.:.:.:.:.:.+.r -.l.e.l.w.w.r.$.r :.:.:.:.:.:.:.:.:.:.:.:.",
":.:.:.:.:.:.:.:.+.r =.j.t.e.l.q.>.q.! $.r :.:.:.:.:.:.:.:.:.:.:.",
":.:.:.:.:.:.m n r =.j.2.w.e.z.j.7.q.6.! $.r :.:.:.:.:.:.:.:.:.:.",
":.:.:.:.:.:.:.+.@ ! 1.7.e.k.x.l.q.>.q.E 8.@ :.:.:.m :.:.:.:.:.:.",
":.:.:.:.:.:.:.+.# 6.E w.e.x.x.l.q.E q.5.e @ :.:.:.:.:.:.:.:.:.:.",
":.:.:.:.:.:.:.+.. y < u ,.x.x.l.q.6.W y 4 @ :.:.:.:.:.:.:.:.:.:.",
":.:.:.m :.:.:.b   X 4   < p #.i y y , X 8 @ m :.:.m m :.m :.m :.",
"2 2 = 2 = = = *   X f 4 X s R V   o L V O X = = = 2 2 = = % = r ",
"%.&.f.d.%.&.d.&.s.o U P o U R Y   o R Y @ %.&.f.d.%.&.f.f.d.%.%.",
"Z S J H Z S H S G o R T d 5.c M V o R Y X Z S J K ! ! <.J H Z A ",
"U I f g U U U U P X N 5.k 8.- h Y o R Y o U U U I c c M U I f j ",
"c M U I c x , , ,   : 0.k 9.6 h R L T M C , , , < f f f c c f l ",
"O O , , O O     o V # 0.k 8.- h E 6.T h Y         O O O O O O > ",
" . . . . . . .} o T d q.3.8.X h E q.T h Y +  . . . . . . . . ...",
"i.i.i.i.i.i.i.u.o Y & u ! W   ; R ! 5.f z $ i.i.i.i.i.i.i.i.i.i.",
"i.i.i.i.i.i.i.u.o Y X s E 5.4 X M E 0.f 8 $ i.i.i.a.i.i.i.i.i.i.",
"i.i.i.i.i.i.i.p.X z X h E q.P X h E 0.f 8 $ i.i.i.i.i.i.i.i.i.i.",
"9 9 9 9 9 9 9 t X 8 X f B q.4.X h E 8.- 8 . 9 9 a 9 9 9 9 9 9 w ",
"%.%.&.d.%.&.d.%.@.O X f k >.8.X h E 8.  : %.&.f.f.d.%.%.%.%.%.*.",
"Z Z S K ! ! 1.! W X 5 - h E 8.  ; T v X 7 Z S J J H Z D ! Q Z F ",
"U U U U T c c c z X 8 X h T v   X c 8 o U U U U U U U I c c f l ",
"c c c c c 8 O O O   O X f c f 4 X 8 O   , , , < c c c c f f f l ",
"O O O O O O           X f f f 8 X 8 X 4         O O O O O O O > ",
" . . . . . . .| O.    X f f 8 O X 8 X 8 + (  . . . . . . . . ...",
"[ [ [ [ [ [ [ [ ;.      - 8 O     O   O + ` [ [ [ [ [ [ [ [ [ { ",
"` ` ` ` ` ` ` ` _ ~ X q 0 O X 0   X 0 + / ` ` ` ` ` ` ` ` ` ` ] ",
"o.o.o.o.o.o.o.X.` _ / ) ) ^ / ) ^ / ) / ` ' o.o.o.o.o.o.o.o.o.u."
};
