/* XPM */
static char *result[] = {
/* columns rows colors chars-per-pixel */
"32 32 27 1 ",
"  c #663931",
". c gray35",
"X c #A0594C",
"o c #CD7977",
"O c #BA917E",
"+ c #505B99",
"@ c #606DB6",
"# c #5667CC",
"$ c #5366D7",
"% c #6A79D3",
"& c #7180D7",
"* c #7789F4",
"= c #CF9D86",
"- c #E7AF8A",
"; c #F4BCA3",
": c #FDD0AF",
"> c #FED0AE",
", c #FFD9BE",
"< c #8092FF",
"1 c #CACDDE",
"2 c #D7D7D7",
"3 c #FCD6C4",
"4 c #FFDFC7",
"5 c #FFEDE5",
"6 c #EFF1FF",
"7 c white",
"8 c None",
/* pixels */
"88888888888888888888888888888888",
"88888888888888888888888888888888",
"88888888888888888888888888888888",
"888888888888:444444:888888888888",
"88888888888:--------:88888888888",
"88888888888:-::--::-:88888888888",
"8888888888o--::--::--o8888888888",
"888888888>o-:::--:::-o>888888888",
"88888888,>o-:::--:::-o>,88888888",
"8888888,->o----------o>-,8888888",
"8888888,-->oooooooooo>--,8888888",
"8888888,--->>>>>>>>>>---,8888888",
"88888888,---,>>>>>>,---,88888888",
"888888888,---,,,,,,---,888888888",
"8888888888,---,,,,---,8888888888",
"88888888888,,,,,,,,,,88888888888",
"88888888888837.55.73888888888888",
"8888888888888=5335=8888888888888",
"8888888888881*=OO=*1888888888888",
"8888888888876<1111<6788888888888",
"88888888888532666623588888888888",
"8888888888533<%@@%<3358888888888",
"888888888853;<@%%@<;358888888888",
"8888888888338<@@@@<8338888888888",
"8888888888888<%$$%<8888888888888",
"8888888888888&++++&8888888888888",
"8888888888888<#%%#<8888888888888",
"8888888888888<%@@%<8888888888888",
"88888888888883388338888888888888",
"8888888888888X 88 X8888888888888",
"88888888888888888888888888888888",
"88888888888888888888888888888888"
};
