/* XPM */
static char *e8fb87337c3f499ace5203b0cb99a748GBTjhYehwWNDvQA0[] = {
/* columns rows colors chars-per-pixel */
"32 32 132 2 ",
"   c #322A27",
".  c #322C27",
"X  c #322B28",
"o  c #332C28",
"O  c #342C28",
"+  c #382E29",
"@  c #363329",
"#  c #39302A",
"$  c #3C322B",
"%  c #383629",
"&  c #3C332C",
"*  c #3E352F",
"=  c #3A3829",
"-  c #41302C",
";  c #44312D",
":  c #48332E",
">  c #533C2F",
",  c #543D2F",
"<  c #493731",
"1  c #433A33",
"2  c #463B32",
"3  c #573E30",
"4  c #5E3A35",
"5  c #613B36",
"6  c #613D37",
"7  c #643D36",
"8  c #6E3F3A",
"9  c #3F412A",
"0  c #4D4236",
"q  c #504437",
"w  c #5A4736",
"e  c #5A4B30",
"r  c #5B4836",
"t  c #5C4936",
"y  c #534538",
"u  c #55473B",
"i  c #634E39",
"p  c #70403A",
"a  c #75443B",
"s  c #647F32",
"d  c #5D4E41",
"f  c #625445",
"g  c #6A5946",
"h  c #6B5B49",
"j  c #6B5C4A",
"k  c #77624A",
"l  c #7A664C",
"z  c #746252",
"x  c #756452",
"c  c #796755",
"v  c #7F6A50",
"b  c #834E3E",
"n  c #844E3E",
"m  c #925F3D",
"M  c #92603F",
"N  c #96603E",
"B  c #98623F",
"V  c #8B5945",
"C  c #905E46",
"Z  c #806B4F",
"A  c #9A6440",
"S  c #826D51",
"D  c #846F53",
"F  c #A56543",
"G  c #A86844",
"H  c #B27146",
"J  c #B67146",
"K  c #BB7547",
"L  c #BB7648",
"P  c #B97B4B",
"I  c #648032",
"U  c #698833",
"Y  c #749A35",
"T  c #769D36",
"R  c #77A037",
"E  c #81AF3C",
"W  c #90C73E",
"Q  c #92CB3F",
"!  c #9B825E",
"~  c #A88051",
"^  c #AF8352",
"/  c #B08554",
"(  c #B78555",
")  c #B38856",
"_  c #B48957",
"`  c #BF8A58",
"'  c #9AA94B",
"]  c #A5B751",
"[  c #9D8360",
"{  c #9E8460",
"}  c #A08662",
"|  c #C3804E",
" . c #C4824E",
".. c #C48350",
"X. c #C98D5C",
"o. c #C89158",
"O. c #CE935A",
"+. c #D1965A",
"@. c #D3985C",
"#. c #D09C5F",
"$. c #D69F60",
"%. c #D7A061",
"&. c #D9A161",
"*. c #DBA463",
"=. c #DCA665",
"-. c #DAA86D",
";. c #DDAB6E",
":. c #C2A67C",
">. c #C4A77D",
",. c #C3A87F",
"<. c #C6AA7F",
"1. c #E0AE6F",
"2. c #E0AE70",
"3. c #E2B173",
"4. c #95D041",
"5. c #98D641",
"6. c #9CDB43",
"7. c #CCE560",
"8. c #D1ED62",
"9. c #D6F264",
"0. c #DAB180",
"q. c #E4B884",
"w. c #E5BE88",
"e. c #EAC189",
"r. c #ECC58B",
"t. c #EDC68D",
"y. c #EBC895",
"u. c #EECB96",
"i. c #F0CC96",
"p. c #F2CF98",
"a. c #F3D19B",
"s. c #F4D29C",
/* pixels */
"} } } } } } } } } } } } } } ! ! { } } } } } } } } } } } } } } } ",
"} } } } } } } } } } } } } ! u * S { } } } } } } } } } } } } } } ",
"} } } c c c c c } } } c x u >.a.j S { } } } } } } } } } } } } } ",
"} } } c } c c c } } } ! u ) =.r.p.h S { } } } } } } } } } c } } ",
"} } } } } } } } } } ! u <.2.t.2.*.r.g S { } } } } } } } } } } } ",
"} } } } } } } } } ! u _ r.2.t.2.&.&.&.i S { } } } } } } } } } } ",
"} } } } } } } } ! u _ e.1.*.t.3...@. .+.i S { } c c } } } } } } ",
"} } } } } } } } 0 ^ e.X.@.=.t.s.2.&.&.| @.t D } } c c } } } } } ",
"} } } } } } } c 1 A K @.*.t.s.s.2.| @. .o.w D } } c c c } } } } ",
"} } } } } c } c 1 ~ P o.$.t.s.s.2. .+.#.t X D } } } } } } } } } ",
"} } } } } } } } 0 X O X m 0.u.i.-.#.P > 5 - D } } } } } } } } } ",
"} } } } } } } } 0 X 5 ; X O N J 3 X + + 5 - v ! ! ! ! ! z ! ! ! ",
"} } } } } } } } 0 X 7 a ; 5 8 8 p - B K , # $ * * & $ * * * & $ ",
"} } } } } } } } 0 X B K b 8 < * 6 - B K , ~ $.w.y.;.&.e.u.y.-.$.",
"} } } } } } } } 0 X N L n - ,.s.f X B K , 7 a a a F J J n a p p ",
"} } } } } } } } 0 + 5 ` V - :.a.f + B J > m H H H b p p F J b p ",
"} } } } } } } } 0 B , / V - / t.f A K b : O X X X 4 8 8 8 8 8 8 ",
"} } } } } c } } 1 B 3 / C - / t.f / | b G , @ % % % % % % % % % ",
"} } } } } c } } 1 B b ( $.r / t.f ^  .n F > E 6.6.6.6.6.6.6.6.6.",
"} } } } } } } } 0 B , O B , / r.f B @.V p - E 6.6.6.6.9.6.6.6.6.",
"} } } } } } } } 0 N > 5 G , / *.t B @.V p - E 6.6.6.9.6.6.6.6.6.",
"} } } } } } } } 1 5 - 5 F > / *.t B @.V 8 - ] 7.4.4.4.4.4.4.4.4.",
"} } } } } } } c 1 5 - 5 p - ,.2.t B @.t X # $ * * * & $ $ $ $ $ ",
"} } } } } } } } 0 5 ; 4 p - ,.2.t B O.w O ^ $.w.y.y.-.$.%.&.$.$.",
"} } c c } } } } 0 4 p - 5 - ,.2.t N b - 7 a a a a a a a F J b p ",
"} } } c } } } } 0 X 4 - 5 - :.3.t 5 8 - m H H H J J J J b p p p ",
"} } } } } } } } 0 X X X 5 - / t.f 5 - O X X X X 4 8 8 8 8 8 8 8 ",
"} } } } } } } } q o X X 5 - ^ t.f 5 - 5 - @ % % % % % % % % % % ",
"} } } } } } } [ Z * X X 4 - B q.f 4 - 4 - s W 5.5.5.5.8.5.5.5.5.",
"} } } } c c } Z k 2 o o X   B @.t X .   @ I ' Y Y Y Y Y ' Y Y Y ",
"} } } } } } } S d k 2 0 y O B +.r @ 9 = I Y T T T T T T T T T T ",
"} } } } } } } } S l l l l 0 M H e U R R R R Q 6.6.6.6.6.6.6.6.6."
};
